<?xml version="1.0" encoding="iso-8859-1"?>
<!-- Uploaded to: SVG Repo, www.svgrepo.com, Generator: SVG Repo Mixer Tools -->
<svg fill="#000000" height="800px" width="800px" version="1.1" id="Layer_1" xmlns="http://www.w3.org/2000/svg" xmlns:xlink="http://www.w3.org/1999/xlink" 
	 viewBox="0 0 512 512" xml:space="preserve">
<g>
	<g>
		<path d="M264.551,256.534h-17.102c-4.427,0-8.017,3.589-8.017,8.017s3.589,8.017,8.017,8.017h17.102
			c4.427,0,8.017-3.589,8.017-8.017S268.979,256.534,264.551,256.534z"/>
	</g>
</g>
<g>
	<g>
		<path d="M392.24,306.473c0-0.002,0-0.003,0-0.005L377.443,165.9c-0.96-9.119-4.86-17.479-10.813-24.012V42.221
			c0-13.851-11.268-25.119-25.119-25.119h-37.397C290.967,6.419,274.223,0,256,0c-18.223,0-34.967,6.419-48.114,17.102h-37.397
			c-13.851,0-25.119,11.268-25.119,25.119v99.667c-5.953,6.533-9.853,14.894-10.813,24.012L119.76,306.468c0,0.002,0,0.003,0,0.005
			c-0.029,0.275-0.044,0.553-0.044,0.834v0.004c0,0.002,0,0.003,0,0.005v34.195c0,13.851,11.268,25.119,25.119,25.119h17.102
			c4.427,0,8.017-3.589,8.017-8.017v-50.233l9.62-35.273v188.654h-0.534c-13.851,0-25.119,11.268-25.119,25.119v17.102
			c0,4.428,3.589,8.017,8.017,8.017h60.67c8.548,0,15.635-6.414,16.486-14.92l15.482-154.813c0.074-0.735,0.686-1.29,1.425-1.29
			c0.739,0,1.351,0.555,1.425,1.29l15.482,154.813c0.85,8.505,7.938,14.92,16.486,14.92h60.67c4.427,0,8.017-3.588,8.017-8.017
			v-17.102c0-13.851-11.268-25.119-25.119-25.119h-0.534V273.108l9.62,35.273v50.233c0,4.427,3.589,8.017,8.017,8.017h17.102
			c13.851,0,25.119-11.268,25.119-25.119v-34.195c0-0.002,0-0.003,0-0.005v-0.004C392.284,307.025,392.269,306.747,392.24,306.473z
			 M341.511,33.136c5.01,0,9.086,4.076,9.086,9.086v9.086h-22.433c-2.269-6.5-5.385-12.601-9.228-18.171H341.511z M331.867,67.34
			h18.73v63.596c-0.594-0.229-1.183-0.468-1.792-0.671l-22.238-7.413c3.768-9.035,5.859-18.939,5.859-29.324V76.426
			C332.426,73.35,332.222,70.323,331.867,67.34z M195.608,78.707C211.819,65.856,233.144,58.789,256,58.789
			c4.427,0,8.017-3.589,8.017-8.017s-3.589-8.017-8.017-8.017c-20.763,0-40.531,5.096-57.281,14.576
			c8.01-23.969,30.653-41.299,57.281-41.299c26.658,0,49.323,17.37,57.309,41.381c-6.475-3.658-13.428-6.721-20.685-9.037
			c-4.219-1.348-8.729,0.981-10.075,5.198c-1.347,4.218,0.98,8.729,5.198,10.075c10.614,3.389,20.446,8.583,28.645,15.063v14.815
			c0,33.3-27.092,60.392-60.392,60.392s-60.391-27.092-60.391-60.392V78.707z M256,169.954c25.941,0,48.889-13.002,62.712-32.819
			l3.061,1.02l-36.067,50.492c-1.3-0.328-2.652-0.522-4.052-0.522h-51.307c-1.4,0-2.753,0.193-4.052,0.523l-36.067-50.492
			l3.061-1.02C207.111,156.952,230.059,169.954,256,169.954z M229.812,222.33v-17.637c0-0.295,0.239-0.534,0.534-0.534h51.307
			c0.295,0,0.534,0.239,0.534,0.534v17.637H229.812z M282.188,238.363v43.29c0,0.295-0.239,0.534-0.534,0.534h-51.307
			c-0.295,0-0.534-0.239-0.534-0.534v-43.29H282.188z M161.403,42.221c0-5.01,4.076-9.086,9.086-9.086h22.575
			c-3.843,5.57-6.96,11.671-9.228,18.171h-22.433V42.221z M161.403,67.34h18.73c-0.355,2.982-0.559,6.009-0.559,9.086v17.102
			c0,10.385,2.091,20.289,5.859,29.324l-22.238,7.413c-0.608,0.203-1.197,0.443-1.791,0.671V67.34z M153.921,350.597h-9.086
			c-5.01,0-9.086-4.076-9.086-9.086v-26.188h18.171V350.597z M155.814,299.29h-19.176l1.792-17.022l20.191,6.731L155.814,299.29z
			 M162.846,273.506l-22.698-7.566l9.075-86.215l29.534,35.441L162.846,273.506z M152.897,159.089
			c3.013-6.327,8.506-11.326,15.369-13.612l6.049-2.016l40.216,56.302c-0.487,1.558-0.75,3.215-0.75,4.932v68.943h-18.172v-60.392
			h-0.009c0-1.853-0.634-3.675-1.849-5.132L152.897,159.089z M223.139,495.486c-0.027,0.275-0.255,0.481-0.531,0.481h-52.654v-9.086
			c0-5.01,4.076-9.086,9.086-9.086h8.551c4.427,0,8.017-3.589,8.017-8.017v-9.086h31.011L223.139,495.486z M228.222,444.66h-32.614
			v-43.825h36.997L228.222,444.66z M234.208,384.802h-38.601v-56.108l42.153,20.582L234.208,384.802z M270.801,333.112
			c-3.097-4.945-8.581-8.168-14.801-8.168c-6.22,0-11.704,3.224-14.801,8.168l-45.591-22.261V289.67h20.25
			c2.829,5.093,8.26,8.551,14.489,8.551h51.307c6.228,0,11.659-3.458,14.489-8.551h20.25v21.181L270.801,333.112z M274.24,349.276
			l42.153-20.583v56.108h-38.601L274.24,349.276z M279.396,400.835h36.997v43.825h-32.614L279.396,400.835z M332.96,477.795
			c5.01,0,9.086,4.076,9.086,9.086v9.086h-52.654c-0.276,0-0.504-0.206-0.531-0.481l-3.479-34.792h31.011v9.086
			c0,4.427,3.589,8.017,8.017,8.017H332.96z M318.251,208.111c-1.215,1.458-1.849,3.279-1.85,5.133h-0.009v60.392h-18.171v-68.944
			c0-1.717-0.263-3.373-0.75-4.932l40.216-56.302l6.049,2.016c6.861,2.287,12.355,7.286,15.369,13.612L318.251,208.111z
			 M349.154,273.506l-15.911-58.339l29.534-35.441l9.075,86.215L349.154,273.506z M353.379,288.999l20.191-6.731l1.792,17.022
			h-19.176L353.379,288.999z M376.251,341.511c0,5.01-4.076,9.086-9.086,9.086h-9.086v-35.273h18.171V341.511z"/>
	</g>
</g>
</svg>