<?xml version="1.0" encoding="iso-8859-1"?>
<!-- Uploaded to: SVG Repo, www.svgrepo.com, Generator: SVG Repo Mixer Tools -->
<svg height="800px" width="800px" version="1.1" id="Layer_1" xmlns="http://www.w3.org/2000/svg" xmlns:xlink="http://www.w3.org/1999/xlink" 
	 viewBox="0 0 512 512" xml:space="preserve">
<g>
	<g>
		<polygon style="fill:#2C354F;" points="248.431,357.646 152.59,181.094 167.721,172.011 263.571,348.563 		"/>
		<polygon style="fill:#2C354F;" points="263.569,357.646 248.429,348.563 344.279,172.011 359.41,181.094 		"/>
	</g>
	<path style="fill:#434C6D;" d="M361.931,176.552c0,19.5-47.431,35.31-105.931,35.31s-105.931-15.81-105.931-35.31
		S197.5,141.241,256,141.241S361.931,157.052,361.931,176.552"/>
	<g>
		<polygon style="fill:#2C354F;" points="247.362,354.905 203.224,143.043 220.5,139.441 264.638,351.303 		"/>
		<polygon style="fill:#2C354F;" points="264.638,354.905 247.362,351.303 291.5,139.441 308.776,143.043 		"/>
	</g>
	<path style="fill:#E8EDEE;" d="M176.552,467.862l15.704-103.071c1.13-6.744,6.965-11.688,13.806-11.688h99.875
		c6.841,0,12.676,4.943,13.806,11.688l15.704,103.071C335.448,492.235,299.882,512,256,512S176.552,492.235,176.552,467.862"/>
	<g>
		<path style="fill:#D75A4A;" d="M291.31,432.552c0,19.5-15.81,35.31-35.31,35.31s-35.31-15.81-35.31-35.31
			c0-19.5,15.81-35.31,35.31-35.31S291.31,413.052,291.31,432.552"/>
		<polygon style="fill:#D75A4A;" points="247.172,512 264.828,512 264.828,459.034 247.172,459.034 		"/>
	</g>
	<path style="fill:#FFFFFF;" d="M264.828,432.552c0,4.873-3.955,8.828-8.828,8.828s-8.828-3.955-8.828-8.828
		s3.955-8.828,8.828-8.828S264.828,427.679,264.828,432.552"/>
	<path style="fill:#8697CB;" d="M256,0c-58.262,0-105.931,47.669-105.931,105.931v70.621c0-19.5,47.431-35.31,105.931-35.31
		s105.931,15.81,105.931,35.31v-70.621C361.931,47.669,314.262,0,256,0"/>
	<g>
		<path style="fill:#434C6D;" d="M291.31,52.966v90.324c6.171,0.733,12.067,1.633,17.655,2.71V52.966
			c0-27.374-20.877-49.964-47.537-52.692C259.619,0.185,257.827,0,256,0v17.655C275.474,17.655,291.31,33.492,291.31,52.966"/>
		<path style="fill:#434C6D;" d="M203.034,52.966v93.034c5.588-1.077,11.485-1.977,17.655-2.71V52.966
			c0-19.474,15.837-35.31,35.31-35.31V0c-1.827,0-3.619,0.185-5.429,0.274C223.912,3.001,203.034,25.591,203.034,52.966"/>
	</g>
</g>
</svg>