<?xml version="1.0" encoding="iso-8859-1"?>
<!-- Uploaded to: SVG Repo, www.svgrepo.com, Generator: SVG Repo Mixer Tools -->
<svg height="800px" width="800px" version="1.1" id="Layer_1" xmlns="http://www.w3.org/2000/svg" xmlns:xlink="http://www.w3.org/1999/xlink" 
	 viewBox="0 0 512.004 512.004" xml:space="preserve">
<g>
	<g>
		<path style="fill:#434C6D;" d="M273.069,512h-34.133c-4.719,0-8.533-3.823-8.533-8.533c0-4.71,3.814-8.533,8.533-8.533h34.133
			c4.719,0,8.533,3.823,8.533,8.533C281.602,508.177,277.788,512,273.069,512"/>
		<path style="fill:#434C6D;" d="M256.002,512c-4.719,0-8.533-3.823-8.533-8.533V435.2c0-4.71,3.814-8.533,8.533-8.533
			c4.719,0,8.533,3.823,8.533,8.533v68.267C264.535,508.177,260.721,512,256.002,512"/>
		<path style="fill:#434C6D;" d="M93.869,392.538c-3.575,0-6.903-2.261-8.09-5.837c-1.493-4.471,0.922-9.301,5.393-10.795l76.8-25.6
			c4.506-1.502,9.293,0.93,10.786,5.393c1.493,4.471-0.922,9.301-5.393,10.795l-76.8,25.6
			C95.669,392.393,94.756,392.538,93.869,392.538"/>
		<path style="fill:#434C6D;" d="M76.811,477.867c-3.021,0-5.948-1.604-7.501-4.446c-2.261-4.139-0.734-9.318,3.413-11.58
			l93.867-51.2c4.113-2.261,9.31-0.734,11.571,3.405c2.261,4.139,0.734,9.318-3.405,11.58l-93.867,51.2
			C79.593,477.534,78.193,477.867,76.811,477.867"/>
		<path style="fill:#434C6D;" d="M170.66,426.671c-1.161,0-2.33-0.239-3.456-0.742l-76.8-34.133
			c-4.309-1.911-6.246-6.955-4.335-11.264c1.92-4.301,6.963-6.246,11.264-4.326l76.8,34.133c4.309,1.911,6.246,6.955,4.335,11.264
			C177.052,424.777,173.937,426.671,170.66,426.671"/>
		<path style="fill:#434C6D;" d="M418.135,392.538c-0.887,0-1.801-0.145-2.697-0.444l-76.8-25.6
			c-4.471-1.493-6.886-6.323-5.393-10.795c1.493-4.463,6.272-6.895,10.786-5.393l76.8,25.6c4.471,1.493,6.886,6.323,5.393,10.795
			C425.039,390.276,421.711,392.538,418.135,392.538"/>
		<path style="fill:#434C6D;" d="M435.194,477.867c-1.382,0-2.782-0.333-4.079-1.041l-93.867-51.2
			c-4.139-2.261-5.666-7.441-3.405-11.58c2.261-4.139,7.458-5.666,11.571-3.405l93.867,51.2c4.147,2.261,5.675,7.441,3.413,11.58
			C441.141,476.262,438.214,477.867,435.194,477.867"/>
		<path style="fill:#434C6D;" d="M341.344,426.671c-3.277,0-6.391-1.894-7.808-5.069c-1.911-4.309,0.026-9.353,4.335-11.264
			l76.8-34.133c4.318-1.92,9.344,0.026,11.264,4.326c1.911,4.309-0.026,9.353-4.335,11.264l-76.8,34.133
			C343.674,426.432,342.505,426.671,341.344,426.671"/>
	</g>
	<g>
		<path style="fill:#F3D55B;" d="M187.735,136.533c-2.185,0-4.369-0.836-6.033-2.5L147.569,99.9c-3.337-3.337-3.337-8.73,0-12.066
			c3.337-3.337,8.73-3.337,12.066,0l34.133,34.133c3.337,3.337,3.337,8.73,0,12.066C192.105,135.697,189.92,136.533,187.735,136.533
			"/>
		<path style="fill:#F3D55B;" d="M153.602,307.2c-2.185,0-4.369-0.836-6.033-2.5c-3.337-3.337-3.337-8.73,0-12.066l34.133-34.133
			c3.337-3.337,8.73-3.337,12.066,0c3.337,3.337,3.337,8.73,0,12.066L159.635,304.7C157.971,306.364,155.787,307.2,153.602,307.2"/>
		<path style="fill:#F3D55B;" d="M358.402,307.2c-2.185,0-4.369-0.836-6.033-2.5l-34.133-34.133c-3.337-3.337-3.337-8.73,0-12.066
			c3.337-3.337,8.73-3.337,12.066,0l34.133,34.133c3.337,3.337,3.337,8.73,0,12.066C362.771,306.364,360.587,307.2,358.402,307.2"/>
		<path style="fill:#F3D55B;" d="M324.269,136.533c-2.185,0-4.369-0.836-6.033-2.5c-3.337-3.337-3.337-8.73,0-12.066l34.133-34.133
			c3.337-3.337,8.73-3.337,12.066,0c3.337,3.337,3.337,8.73,0,12.066l-34.133,34.133
			C328.638,135.697,326.453,136.533,324.269,136.533"/>
	</g>
	<g>
		<path style="fill:#E8EDEE;" d="M256.002,76.8c-4.719,0-8.533-3.823-8.533-8.533V8.533c0-4.71,3.814-8.533,8.533-8.533
			c4.719,0,8.533,3.823,8.533,8.533v59.733C264.535,72.977,260.721,76.8,256.002,76.8"/>
		<path style="fill:#E8EDEE;" d="M273.069,34.133h-34.133c-4.719,0-8.533-3.823-8.533-8.533s3.814-8.533,8.533-8.533h34.133
			c4.719,0,8.533,3.823,8.533,8.533S277.788,34.133,273.069,34.133"/>
		<path style="fill:#E8EDEE;" d="M221.869,213.334l13.03-117.265c-46.43,9.728-81.297,50.884-81.297,100.198
			c0,44.57,28.518,82.372,68.267,96.444V213.334z"/>
		<path style="fill:#E8EDEE;" d="M277.106,96.067l13.03,117.265v79.386c39.748-14.071,68.267-51.883,68.267-96.452
			C358.403,146.951,323.527,105.795,277.106,96.067"/>
	</g>
	<g>
		<polygon style="fill:#434C6D;" points="170.669,435.2 341.335,435.2 341.335,349.867 170.669,349.867 		"/>
		<path style="fill:#434C6D;" d="M59.744,512.004c-0.785,0-1.57-0.111-2.347-0.333c-4.54-1.297-7.159-6.016-5.871-10.547
			L85.66,381.658c1.297-4.54,6.067-7.159,10.547-5.862c4.54,1.297,7.159,6.016,5.871,10.547L67.945,505.809
			C66.869,509.555,63.456,512.004,59.744,512.004"/>
		<path style="fill:#434C6D;" d="M85.335,512H42.669c-4.719,0-8.533-3.823-8.533-8.533c0-4.71,3.814-8.533,8.533-8.533h42.667
			c4.719,0,8.533,3.823,8.533,8.533C93.869,508.177,90.054,512,85.335,512"/>
		<path style="fill:#434C6D;" d="M469.335,512h-42.667c-4.719,0-8.533-3.823-8.533-8.533c0-4.71,3.814-8.533,8.533-8.533h42.667
			c4.719,0,8.533,3.823,8.533,8.533C477.869,508.177,474.054,512,469.335,512"/>
	</g>
	<g>
		<path style="fill:#F3D55B;" d="M213.335,392.533c0,4.71-3.823,8.533-8.533,8.533s-8.533-3.823-8.533-8.533
			s3.823-8.533,8.533-8.533S213.335,387.823,213.335,392.533"/>
		<path style="fill:#F3D55B;" d="M247.469,392.533c0,4.71-3.823,8.533-8.533,8.533c-4.71,0-8.533-3.823-8.533-8.533
			s3.823-8.533,8.533-8.533C243.646,384,247.469,387.823,247.469,392.533"/>
		<path style="fill:#F3D55B;" d="M281.602,392.533c0,4.71-3.823,8.533-8.533,8.533c-4.71,0-8.533-3.823-8.533-8.533
			s3.823-8.533,8.533-8.533C277.779,384,281.602,387.823,281.602,392.533"/>
		<path style="fill:#F3D55B;" d="M315.735,392.533c0,4.71-3.823,8.533-8.533,8.533s-8.533-3.823-8.533-8.533
			s3.823-8.533,8.533-8.533S315.735,387.823,315.735,392.533"/>
	</g>
	<path style="fill:#434C6D;" d="M452.26,512.004c-3.712,0-7.125-2.449-8.201-6.195l-34.133-119.467
		c-1.288-4.531,1.331-9.25,5.871-10.547c4.497-1.289,9.25,1.323,10.547,5.862l34.133,119.467c1.289,4.531-1.331,9.25-5.871,10.547
		C453.83,511.893,453.045,512.004,452.26,512.004"/>
	<path style="fill:#E8EDEE;" d="M256.002,298.667c-11.989,0-23.441-2.167-34.133-5.948v57.148h68.267v-57.148
		C279.443,296.499,267.991,298.667,256.002,298.667"/>
	<path style="fill:#B0B6BB;" d="M290.135,298.667h-68.267v-85.333l15.42-138.812c0.939-8.422,8.055-6.255,16.529-6.255h4.369
		c8.474,0,15.59-2.167,16.529,6.255l15.42,138.812V298.667z"/>
	<g>
		<path style="fill:#F3D55B;" d="M358.097,190.217c-0.802-13.73-4.292-26.709-9.984-38.46l-61.739,27.708l3.763,33.869v7.211
			L358.097,190.217z"/>
		<path style="fill:#F3D55B;" d="M154.007,188.241l67.866,32.213v-7.117l3.772-33.988l-60.937-29.295
			C158.812,161.685,155.074,174.571,154.007,188.241"/>
	</g>
</g>
</svg>