<?xml version="1.0" encoding="iso-8859-1"?>
<!-- Uploaded to: SVG Repo, www.svgrepo.com, Generator: SVG Repo Mixer Tools -->
<svg height="800px" width="800px" version="1.1" id="Layer_1" xmlns="http://www.w3.org/2000/svg" xmlns:xlink="http://www.w3.org/1999/xlink" 
	 viewBox="0 0 512 512" xml:space="preserve">
<g>
	<g>
		<polygon style="fill:#B0B6BB;" points="65.509,141.087 38.562,114.14 51.263,101.439 78.21,128.386 		"/>
		<path style="fill:#B0B6BB;" d="M503.018,332.351h-17.965c0-19.815-16.115-35.93-35.93-35.93v-17.965
			C478.846,278.456,503.018,302.628,503.018,332.351"/>
		<polygon style="fill:#B0B6BB;" points="485.053,359.298 503.018,359.298 503.018,332.351 485.053,332.351 		"/>
	</g>
	<path style="fill:#E8EDEE;" d="M458.105,332.351h-35.93v-53.895c0-9.926,8.039-17.965,17.965-17.965
		c9.926,0,17.965,8.039,17.965,17.965V332.351z"/>
	<g>
		<path style="fill:#434C6D;" d="M125.754,386.246c0,34.726-28.151,62.877-62.877,62.877S0,420.972,0,386.246
			s28.151-62.877,62.877-62.877S125.754,351.519,125.754,386.246"/>
		<path style="fill:#434C6D;" d="M512,386.246c0,34.726-28.151,62.877-62.877,62.877s-62.877-28.151-62.877-62.877
			s28.151-62.877,62.877-62.877S512,351.519,512,386.246"/>
	</g>
	<path style="fill:#E8EDEE;" d="M106.842,341.333c9.638,9.432,16.195,21.935,18.198,35.93H386.96
		c2.003-13.995,8.569-26.498,18.198-35.93H106.842z"/>
	<polygon style="fill:#434C6D;" points="134.737,341.333 179.649,341.333 179.649,296.421 134.737,296.421 	"/>
	<path style="fill:#B0B6BB;" d="M215.579,341.333h-35.93v-63.254c0-4.752,3.853-8.605,8.605-8.605h18.719
		c4.752,0,8.605,3.853,8.605,8.605V341.333z"/>
	<path style="fill:#434C6D;" d="M395.228,215.579c0-9.881-8.084-17.965-17.965-17.965c-9.881,0-17.965,8.084-17.965,17.965v26.947
		l-28.582,62.877h-61.242c-9.881,0-17.965,8.084-17.965,17.965c0,9.881,8.084,17.965,17.965,17.965h44.912h26.947h17.965
		l35.93-89.825v-8.982V215.579z"/>
	<g>
		<path style="fill:#E8EDEE;" d="M89.825,386.246c0,14.884-12.063,26.947-26.947,26.947S35.93,401.13,35.93,386.246
			s12.063-26.947,26.947-26.947S89.825,371.362,89.825,386.246"/>
		<path style="fill:#E8EDEE;" d="M476.07,386.246c0,14.884-12.063,26.947-26.947,26.947s-26.947-12.063-26.947-26.947
			s12.063-26.947,26.947-26.947S476.07,371.362,476.07,386.246"/>
	</g>
	<g>
		<path style="fill:#B0B6BB;" d="M386.246,386.246c0-3.054,0.296-6.045,0.719-8.982h-63.596v7.303
			c0,15.809,12.818,28.627,28.627,28.627h40.385C388.491,405.019,386.246,395.902,386.246,386.246"/>
		<path style="fill:#B0B6BB;" d="M125.04,377.263c0.422,2.937,0.719,5.928,0.719,8.982c0,9.656-2.246,18.773-6.135,26.947h67.324
			c15.809,0,28.636-12.818,28.636-28.627v-7.303H125.04z"/>
		<path style="fill:#B0B6BB;" d="M143.719,341.333h-17.965V206.596c0-5.928-13.941-20.642-19.77-25.142l10.968-14.228
			c2.192,1.698,26.768,22.339,26.768,39.37V341.333z"/>
	</g>
	<path style="fill:#E8EDEE;" d="M27.85,179.649c24.558,24.558,64.368,24.558,88.917,0c24.558-24.558,24.558-64.368,0-88.926
		L27.85,179.649z"/>
	<g>
		<polygon style="fill:#434C6D;" points="44.912,116.772 8.982,116.772 0,107.789 0,71.86 8.982,62.877 44.912,62.877 53.895,71.86 
			53.895,107.789 		"/>
		<path style="fill:#434C6D;" d="M206.596,269.474h-17.965v-26.947c0-17.031,19.267-32.373,21.468-34.061l10.977,14.219
			c-5.839,4.536-14.48,13.977-14.48,19.842V269.474z"/>
		<path style="fill:#434C6D;" d="M233.553,242.526c-2.731,0-5.425-1.24-7.195-3.593l-26.947-35.93
			c-2.973-3.97-2.174-9.602,1.796-12.575c3.979-2.973,9.611-2.165,12.575,1.796l26.947,35.93c2.973,3.97,2.174,9.602-1.796,12.575
			C237.316,241.942,235.421,242.526,233.553,242.526"/>
	</g>
</g>
</svg>