<?xml version="1.0" encoding="iso-8859-1"?>
<!-- Uploaded to: SVG Repo, www.svgrepo.com, Generator: SVG Repo Mixer Tools -->
<svg fill="#000000" height="800px" width="800px" version="1.1" id="Layer_1" xmlns="http://www.w3.org/2000/svg" xmlns:xlink="http://www.w3.org/1999/xlink" 
	 viewBox="0 0 512 512" xml:space="preserve">
<g transform="translate(1 1)">
	<g>
		<g>
			<path d="M501.614,341.78h0.708v-26.034c0-25.681-18.847-47.161-43.39-51.325v-0.742c0-14.753-11.281-26.034-26.034-26.034
				s-26.034,11.281-26.034,26.034v52.776c-3.947,2.297-7.648,4.968-11.057,7.97h-28.341l29.852-74.63
				c0.868-0.868,0.868-2.603,0.868-3.471V211.61c0-14.753-11.281-26.034-26.034-26.034c-14.753,0-26.034,11.281-26.034,26.034
				v24.298l-24.298,53.803h-53.803c-14.753,0-26.034,11.281-26.034,26.034c0,3.067,0.494,5.981,1.399,8.678h-18.755v-52.068
				c0-9.546-7.81-17.356-17.356-17.356v-17.356c0-4.714,5.225-10.989,9.999-15.594l9.092,12.123
				c1.736,2.603,4.339,3.471,6.942,3.471c1.736,0,3.471-0.868,5.207-1.736c3.471-2.603,4.339-8.678,1.736-12.149l-26.034-34.712
				c-2.603-3.471-8.678-4.339-12.149-1.736s-4.339,8.678-1.736,12.149l6.371,8.495c-6.186,5.55-16.785,17.11-16.785,29.688V255
				c-9.546,0-17.356,7.81-17.356,17.356v8.678h-26.034v-78.102c0-10.642-7.951-20.555-14.057-26.718
				c20.809-27.101,18.855-66.546-5.902-91.302l-6.075-6.075L77.599,121.73l-17.853-17.853V72.763l-8.678-8.678H16.356l-8.678,8.678
				v34.712l8.678,8.678h31.12l17.85,17.85L22.43,176.898l6.075,6.942C42.39,196.858,59.746,203.8,77.969,203.8
				c15.463,0,30.29-5.639,42.383-15.295c4.415,4.46,8.817,10.1,8.817,14.427v78.102v43.39h-14.977
				c-12.243-10.782-28.271-17.356-45.769-17.356C30.241,307.068-1,338.308-1,376.492c0,38.183,31.241,69.424,69.424,69.424
				c25.557,0,47.987-14.006,60.038-34.712h59.718c19.378,0,35.48-15.542,36.403-34.712h86.869
				c0.922,19.17,17.025,34.712,36.403,34.712h33.684c12.051,20.706,34.481,34.712,60.038,34.712
				c38.183,0,69.424-31.241,69.424-69.424C511,363.865,507.567,352.009,501.614,341.78z M42.39,98.797H25.034V81.441H42.39V98.797z
				 M77.969,185.576c-11.281,0-21.695-3.471-30.373-9.546l72.027-72.895c14.753,19.959,13.017,48.597-5.207,66.82
				C104.871,180.37,91.854,185.576,77.969,185.576z M484.966,315.746v6.672c-7.557-6.083-16.392-10.633-26.034-13.138v-27.14
				C473.86,286.019,484.966,299.648,484.966,315.746z M424.22,307.068v-43.39c0-5.207,3.471-8.678,8.678-8.678
				s8.678,3.471,8.678,8.678v43.39H424.22z M259.339,315.746c0-5.207,3.471-8.678,8.678-8.678h59.01c3.471,0,6.075-1.736,7.81-5.207
				l27.77-60.746c0.868-0.868,0.868-2.603,0.868-3.471V211.61c0-5.207,3.471-8.678,8.678-8.678c5.207,0,8.678,3.471,8.678,8.678
				v32.976l-32.108,79.837h-80.705C262.81,324.424,259.339,320.953,259.339,315.746z M189.915,272.356h17.356v52.068h-17.356v-43.39
				V272.356z M146.525,298.39h26.034v26.034h-26.034V298.39z M68.424,428.559c-28.637,0-52.068-23.431-52.068-52.068
				s23.43-52.068,52.068-52.068c24.942,0,45.927,17.776,50.93,41.284l0.27,2.974c0.336,1.346,0.54,2.428,0.667,3.404
				c0.123,1.454,0.201,2.921,0.201,4.406c0,0.932-0.028,1.863-0.078,2.793c-0.019,0.358-0.055,0.712-0.082,1.069
				c-0.041,0.557-0.081,1.115-0.14,1.67c-0.051,0.48-0.119,0.955-0.183,1.431c-0.055,0.412-0.108,0.824-0.173,1.234
				c-0.09,0.563-0.194,1.122-0.302,1.68c-0.058,0.304-0.117,0.607-0.181,0.91c-0.132,0.62-0.275,1.236-0.429,1.848
				c-0.057,0.228-0.116,0.455-0.177,0.682c-0.171,0.643-0.352,1.283-0.547,1.917c-0.066,0.214-0.137,0.426-0.206,0.639
				c-0.196,0.607-0.398,1.211-0.615,1.808c-0.189,0.515-0.391,1.025-0.597,1.532c-0.103,0.258-0.2,0.52-0.308,0.777
				c-0.371,0.869-0.766,1.728-1.189,2.573l-1.103,2.205C105.338,417.486,88.111,428.559,68.424,428.559z M188.18,393.847h-52.544
				c1.218-4.687,1.941-9.566,2.141-14.574c0.042-0.912,0.071-1.834,0.071-2.782h69.424
				C206.403,386.037,197.725,393.847,188.18,393.847z M135.635,359.136c-0.385-1.482-0.835-2.938-1.314-4.381
				c-0.991-3.608-2.534-7.135-4.434-10.407c-0.457-0.868-0.934-1.722-1.426-2.568h0.708h43.39h17.356h34.712h43.39h86.78h26.034
				c-2.603,5.207-5.207,11.281-6.942,17.356h-62.481h-86.78H135.635z M347.854,393.847c-10.414,0-18.224-7.81-19.092-17.356h43.39
				c0,0.948,0.029,1.869,0.071,2.782c0.2,5.008,0.923,9.887,2.141,14.574H347.854z M441.576,428.559
				c-28.637,0-52.068-23.431-52.068-52.068s23.43-52.068,52.068-52.068c28.637,0,52.068,23.431,52.068,52.068
				S470.214,428.559,441.576,428.559z"/>
			<path d="M68.424,341.78c-19.091,0-34.712,15.62-34.712,34.712c0,19.092,15.62,34.712,34.712,34.712
				c19.092,0,34.712-15.62,34.712-34.712C103.136,357.4,87.515,341.78,68.424,341.78z M68.424,393.847
				c-9.546,0-17.356-7.81-17.356-17.356c0-9.546,7.81-17.356,17.356-17.356c9.546,0,17.356,7.81,17.356,17.356
				C85.78,386.037,77.969,393.847,68.424,393.847z"/>
			<path d="M441.576,341.78c-19.092,0-34.712,15.62-34.712,34.712c0,19.092,15.62,34.712,34.712,34.712
				c19.091,0,34.712-15.62,34.712-34.712C476.288,357.4,460.668,341.78,441.576,341.78z M441.576,393.847
				c-9.546,0-17.356-7.81-17.356-17.356c0-9.546,7.81-17.356,17.356-17.356c9.546,0,17.356,7.81,17.356,17.356
				C458.932,386.037,451.122,393.847,441.576,393.847z"/>
		</g>
	</g>
</g>
</svg>