<?xml version="1.0" encoding="iso-8859-1"?>
<!-- Uploaded to: SVG Repo, www.svgrepo.com, Generator: SVG Repo Mixer Tools -->
<svg height="800px" width="800px" version="1.1" id="Layer_1" xmlns="http://www.w3.org/2000/svg" xmlns:xlink="http://www.w3.org/1999/xlink" 
	 viewBox="0 0 512 512" xml:space="preserve">
<g>
	<polygon style="fill:#B0B6BB;" points="238.933,452.267 307.2,452.267 307.2,349.867 238.933,349.867 	"/>
	<polygon style="fill:#E8EDEE;" points="324.266,503.467 221.866,503.467 238.933,452.267 307.2,452.267 	"/>
	<path style="fill:#838A8E;" d="M307.2,349.867h-68.267l27.878-72.815c2.577-5.163,9.933-5.163,12.51,0L307.2,349.867z"/>
	<g>
		<path style="fill:#B0B6BB;" d="M307.2,85.333h-68.267l27.878-72.815c2.577-5.163,9.933-5.163,12.51,0L307.2,85.333z"/>
		<polygon style="fill:#B0B6BB;" points="358.4,452.267 307.2,452.267 324.266,503.467 375.466,503.467 		"/>
	</g>
	<polygon style="fill:#838A8E;" points="307.2,452.267 358.4,452.267 358.4,349.867 307.2,349.867 	"/>
	<path style="fill:#E8EDEE;" d="M330.524,277.049c-2.577-5.154-9.941-5.154-12.518,0l-19.337,50.526l8.533,22.289h51.2
		L330.524,277.049z"/>
	<polygon style="fill:#B0B6BB;" points="187.733,452.267 238.933,452.267 221.866,503.467 170.666,503.467 	"/>
	<polygon style="fill:#838A8E;" points="187.733,452.267 238.933,452.267 238.933,349.867 187.733,349.867 	"/>
	<g>
		<path style="fill:#E8EDEE;" d="M215.609,277.049c2.577-5.154,9.941-5.154,12.518,0l19.337,50.526l-8.533,22.289h-51.2
			L215.609,277.049z"/>
		<polygon style="fill:#E8EDEE;" points="315.733,170.667 230.4,170.667 238.933,85.333 307.2,85.333 		"/>
	</g>
	<g>
		<path style="fill:#B0B6BB;" d="M230.4,170.667v112.324l17.067,44.587l19.345-50.526c2.577-5.163,9.933-5.163,12.51,0
			l19.345,50.526l17.067-44.587V170.667H230.4z"/>
		<path style="fill:#B0B6BB;" d="M273.066,145.067c-4.71,0-8.533-3.823-8.533-8.533v-17.067c0-4.71,3.823-8.533,8.533-8.533
			s8.533,3.823,8.533,8.533v17.067C281.6,141.244,277.777,145.067,273.066,145.067"/>
	</g>
	<g>
		<path style="fill:#E8EDEE;" d="M281.6,204.8c0,4.71-3.823,8.533-8.533,8.533s-8.533-3.823-8.533-8.533
			c0-4.71,3.823-8.533,8.533-8.533S281.6,200.09,281.6,204.8"/>
		<path style="fill:#E8EDEE;" d="M281.6,238.933c0,4.71-3.823,8.533-8.533,8.533s-8.533-3.823-8.533-8.533s3.823-8.533,8.533-8.533
			S281.6,234.223,281.6,238.933"/>
	</g>
	<g>
		<path style="fill:#F3D55B;" d="M401.066,213.333c0,4.71-3.823,8.533-8.533,8.533S384,218.044,384,213.333s3.823-8.533,8.533-8.533
			S401.066,208.623,401.066,213.333"/>
		<path style="fill:#F3D55B;" d="M494.933,85.333c0,4.71-3.823,8.533-8.533,8.533s-8.533-3.823-8.533-8.533
			c0-4.71,3.823-8.533,8.533-8.533S494.933,80.623,494.933,85.333"/>
		<path style="fill:#F3D55B;" d="M76.8,358.4c0,4.71-3.823,8.533-8.533,8.533s-8.533-3.823-8.533-8.533s3.823-8.533,8.533-8.533
			S76.8,353.69,76.8,358.4"/>
		<path style="fill:#F3D55B;" d="M119.466,136.533c0,4.71-3.823,8.533-8.533,8.533c-4.71,0-8.533-3.823-8.533-8.533
			s3.823-8.533,8.533-8.533C115.643,128,119.466,131.823,119.466,136.533"/>
		<path style="fill:#F3D55B;" d="M34.108,42.667c3.234,2.432,6.127,5.325,8.559,8.559c2.432-3.234,5.316-6.127,8.559-8.559
			c-3.243-2.432-6.127-5.325-8.559-8.559C40.235,37.342,37.342,40.235,34.108,42.667 M42.667,85.333
			c-4.71,0-8.533-3.823-8.533-8.533c0-14.114-11.486-25.6-25.6-25.6C3.823,51.2,0,47.377,0,42.667s3.823-8.533,8.533-8.533
			c14.114,0,25.6-11.486,25.6-25.6c0-4.71,3.823-8.533,8.533-8.533S51.2,3.823,51.2,8.533c0,14.114,11.486,25.6,25.6,25.6
			c4.71,0,8.533,3.823,8.533,8.533S81.511,51.2,76.8,51.2c-14.114,0-25.6,11.486-25.6,25.6C51.2,81.51,47.377,85.333,42.667,85.333"
			/>
		<path style="fill:#F3D55B;" d="M447.267,460.8l13.534,13.534l13.534-13.534L460.8,447.266L447.267,460.8z M460.8,498.466
			L423.134,460.8l37.666-37.666l37.666,37.666L460.8,498.466z"/>
		<path style="fill:#F3D55B;" d="M460.8,443.733c-4.71,0-8.533-3.823-8.533-8.533v-17.067c0-4.71,3.823-8.533,8.533-8.533
			s8.533,3.823,8.533,8.533V435.2C469.333,439.91,465.51,443.733,460.8,443.733"/>
		<path style="fill:#F3D55B;" d="M503.466,469.333H486.4c-4.71,0-8.533-3.823-8.533-8.533s3.823-8.533,8.533-8.533h17.067
			c4.71,0,8.533,3.823,8.533,8.533S508.177,469.333,503.466,469.333"/>
		<path style="fill:#F3D55B;" d="M460.8,512c-4.71,0-8.533-3.823-8.533-8.533V486.4c0-4.71,3.823-8.533,8.533-8.533
			s8.533,3.823,8.533,8.533v17.067C469.333,508.177,465.51,512,460.8,512"/>
		<path style="fill:#F3D55B;" d="M435.2,469.333h-17.067c-4.71,0-8.533-3.823-8.533-8.533s3.823-8.533,8.533-8.533H435.2
			c4.71,0,8.533,3.823,8.533,8.533S439.91,469.333,435.2,469.333"/>
	</g>
</g>
</svg>