<?xml version="1.0" encoding="iso-8859-1"?>
<!-- Uploaded to: SVG Repo, www.svgrepo.com, Generator: SVG Repo Mixer Tools -->
<svg version="1.1" id="Layer_1" xmlns="http://www.w3.org/2000/svg" xmlns:xlink="http://www.w3.org/1999/xlink" 
	 viewBox="0 0 489.992 489.992" xml:space="preserve">
<g id="XMLID_591_">
	<g id="XMLID_1281_">
		<polygon style="fill:#9ED6F1;" points="306.245,451.712 183.747,451.712 199.059,367.494 290.933,367.494 		"/>
	</g>
	<g id="XMLID_1282_">
		<rect x="191.403" y="421.087" style="fill:#5EBAE7;" width="114.842" height="30.625"/>
	</g>
	<g id="XMLID_1249_">
		<polygon style="fill:#9ED6F1;" points="313.901,99.529 176.091,99.529 206.715,45.936 283.277,45.936 		"/>
	</g>
	<g id="XMLID_1252_">
		<polygon style="fill:#5EBAE7;" points="244.996,99.529 176.091,99.529 206.715,45.936 229.684,45.936 		"/>
	</g>
	<g id="XMLID_1234_">
		<polygon style="fill:#3AAA35;" points="344.526,137.81 145.466,137.81 168.435,99.529 321.557,99.529 		"/>
	</g>
	<g id="XMLID_1248_">
		<rect x="183.747" y="99.529" style="fill:#89CC86;" width="30.625" height="38.281"/>
	</g>
	<g id="XMLID_1250_">
		<rect x="244.996" y="99.529" style="fill:#89CC86;" width="30.625" height="38.281"/>
	</g>
	<g id="XMLID_1251_">
		<polygon style="fill:#89CC86;" points="344.526,137.81 306.245,137.81 306.245,99.529 321.557,99.529 		"/>
	</g>
	<g id="XMLID_1147_">
		<rect x="130.154" y="137.81" style="fill:#5EBAE7;" width="229.684" height="229.684"/>
	</g>
	<g id="XMLID_1179_">
		<rect x="191.403" y="137.81" style="fill:#9ED6F1;" width="168.435" height="229.684"/>
	</g>
	<g id="XMLID_513_">
		<rect x="130.154" y="183.747" style="fill:#3AAA35;" width="76.561" height="137.811"/>
	</g>
	<g id="XMLID_1210_">
		<circle style="fill:#89CC86;" cx="294.761" cy="256.48" r="26.796"/>
	</g>
	<g id="XMLID_1138_">
		<rect x="206.716" y="413.431" style="fill:#1D1D1B;" width="76.561" height="15.313"/>
	</g>
	<g id="XMLID_1143_">
		<rect x="222.027" y="176.091" style="fill:#FFFFFF;" width="15.313" height="153.123"/>
	</g>
	<g id="XMLID_1145_">
		<rect x="260.309" y="176.091" style="fill:#1D1D1B;" width="68.905" height="15.313"/>
	</g>
	<g id="XMLID_1146_">
		<rect x="260.309" y="199.06" style="fill:#1D1D1B;" width="68.905" height="15.313"/>
	</g>
	<g id="XMLID_1151_">
		<rect x="260.309" y="298.589" style="fill:#1D1D1B;" width="68.905" height="15.313"/>
	</g>
	<g id="XMLID_1150_">
		<rect x="260.309" y="321.558" style="fill:#1D1D1B;" width="68.905" height="15.313"/>
	</g>
	<g id="XMLID_1142_">
		<path style="fill:#1D1D1B;" d="M294.761,290.933c-18.997,0-34.452-15.455-34.452-34.452s15.455-34.453,34.452-34.453
			s34.453,15.456,34.453,34.453C329.214,275.478,313.758,290.933,294.761,290.933z M294.761,237.34
			c-10.554,0-19.14,8.586-19.14,19.141c0,10.554,8.586,19.14,19.14,19.14c10.555,0,19.141-8.586,19.141-19.14
			C313.901,245.926,305.315,237.34,294.761,237.34z"/>
	</g>
	<g id="XMLID_1152_">
		<rect x="176.091" y="467.024" style="fill:#1D1D1B;" width="15.313" height="22.968"/>
	</g>
	<g id="XMLID_1154_">
		<rect x="206.715" y="467.024" style="fill:#1D1D1B;" width="15.313" height="15.313"/>
	</g>
	<g id="XMLID_1155_">
		<rect x="237.34" y="467.024" style="fill:#1D1D1B;" width="15.313" height="22.968"/>
	</g>
	<g id="XMLID_1156_">
		<rect x="267.965" y="467.024" style="fill:#1D1D1B;" width="15.313" height="15.313"/>
	</g>
	<g id="XMLID_1157_">
		<rect x="298.589" y="467.024" style="fill:#1D1D1B;" width="15.313" height="22.968"/>
	</g>
	<path style="fill:#1D1D1B;" d="M367.494,130.154h-18.871l-61.25-91.874h-34.722V0H237.34v38.28h-34.722l-61.25,91.874h-18.87
		v45.937v153.123v45.936h67.388l-15.313,84.218h140.846l-15.313-84.218h67.388V130.154z M206.715,130.154h-15.312v-22.969h15.312
		V130.154z M222.027,107.186h15.313v22.969h-15.313V107.186z M252.652,107.186h15.313v22.969h-15.313V107.186z M283.277,107.186
		h15.311v22.969h-15.311V107.186z M313.901,107.186h1.007l15.313,22.969h-16.319L313.901,107.186L313.901,107.186z M210.814,53.593
		h68.365l25.521,38.28H185.293L210.814,53.593z M175.084,107.186h1.007v22.969h-16.319L175.084,107.186z M137.811,191.403h61.249
		v122.498h-61.249V191.403z M297.071,444.056h-104.15l12.528-68.905h79.095L297.071,444.056z M352.182,359.838H137.811v-30.624
		h76.562V176.091h-76.562v-30.624h214.371V359.838z"/>
</g>
</svg>