<?xml version="1.0" encoding="iso-8859-1"?>
<!-- Uploaded to: SVG Repo, www.svgrepo.com, Generator: SVG Repo Mixer Tools -->
<svg height="800px" width="800px" version="1.1" id="Layer_1" xmlns="http://www.w3.org/2000/svg" xmlns:xlink="http://www.w3.org/1999/xlink" 
	 viewBox="0 0 512 512" xml:space="preserve">
<polygon style="fill:#434A54;" points="330.664,512 181.336,512 213.336,405.344 298.664,405.344 "/>
<path style="fill:#E6E9ED;" d="M361.211,125.594l-59.156-99.156C292.805,10.625,275.648,0,255.992,0
	c-19.641,0-36.781,10.625-46.047,26.438l-59.172,99.156c-0.906,1.578-1.438,3.406-1.438,5.359v295.703h213.328V130.953
	C362.664,129,362.133,127.172,361.211,125.594z"/>
<path style="fill:#CCD1D9;" d="M362.664,149.344v-18.391c0-1.016-0.141-2.016-0.422-2.953H149.758
	c-0.266,0.938-0.422,1.938-0.422,2.953v18.391h64v64h-64v21.312h213.328v-21.312h-128v-64H362.664z"/>
<polygon style="fill:#656D78;" points="190.93,480 321.055,480 314.664,458.656 197.336,458.656 "/>
<path style="fill:#ED5565;" d="M319.992,181.344c0,5.875-4.766,10.656-10.656,10.656s-10.672-4.781-10.672-10.656
	c0-5.906,4.781-10.688,10.672-10.688S319.992,175.438,319.992,181.344z"/>
<g>
	<path style="fill:#434A54;" d="M245.336,362.656h-53.344c-5.875,0-10.656,4.781-10.656,10.688c0,5.875,4.781,10.656,10.656,10.656
		h53.344c5.891,0,10.656-4.781,10.656-10.656C255.992,367.438,251.228,362.656,245.336,362.656z"/>
	<path style="fill:#434A54;" d="M245.336,320h-53.344c-5.875,0-10.656,4.781-10.656,10.656c0,5.906,4.781,10.688,10.656,10.688
		h53.344c5.891,0,10.656-4.781,10.656-10.688C255.992,324.781,251.228,320,245.336,320z"/>
	<path style="fill:#434A54;" d="M191.992,298.656h53.344c5.891,0,10.656-4.766,10.656-10.656s-4.766-10.656-10.656-10.656h-53.344
		c-5.875,0-10.656,4.766-10.656,10.656S186.117,298.656,191.992,298.656z"/>
</g>
</svg>