<?xml version="1.0" encoding="iso-8859-1"?>
<!-- Uploaded to: SVG Repo, www.svgrepo.com, Generator: SVG Repo Mixer Tools -->
<svg height="800px" width="800px" version="1.1" id="Layer_1" xmlns="http://www.w3.org/2000/svg" xmlns:xlink="http://www.w3.org/1999/xlink" 
	 viewBox="0 0 512 512" xml:space="preserve">
<g>
	<polygon style="fill:#E8EDEE;" points="452.267,366.933 59.733,366.933 162.133,110.933 349.867,110.933 	"/>
	<g>
		<polygon style="fill:#B0B6BB;" points="59.733,418.133 452.267,418.133 452.267,366.933 59.733,366.933 		"/>
		<path style="fill:#B0B6BB;" d="M256,0c-51.627,0-93.867,42.24-93.867,93.867v17.067h187.733V93.867C349.867,42.24,307.627,0,256,0
			"/>
	</g>
	<g>
		<path style="fill:#F18D46;" d="M264.533,503.467c0,4.71-3.823,8.533-8.533,8.533c-4.71,0-8.533-3.823-8.533-8.533
			c0-4.71,3.823-8.533,8.533-8.533C260.71,494.933,264.533,498.756,264.533,503.467"/>
		<path style="fill:#F18D46;" d="M256,477.867c-4.71,0-8.533-3.823-8.533-8.533v-17.067c0-4.71,3.823-8.533,8.533-8.533
			c4.71,0,8.533,3.823,8.533,8.533v17.067C264.533,474.044,260.71,477.867,256,477.867"/>
		<path style="fill:#F18D46;" d="M307.2,494.933c0,4.71,3.823,8.533,8.533,8.533c4.71,0,8.533-3.823,8.533-8.533
			s-3.823-8.533-8.533-8.533C311.023,486.4,307.2,490.223,307.2,494.933"/>
		<path style="fill:#F18D46;" d="M298.675,477.867c-3.132,0-6.144-1.724-7.646-4.719l-8.533-17.067
			c-2.108-4.215-0.393-9.335,3.823-11.452c4.215-2.108,9.335-0.393,11.452,3.823l8.533,17.067c2.108,4.215,0.393,9.335-3.823,11.452
			C301.261,477.577,299.955,477.867,298.675,477.867"/>
		<path style="fill:#F18D46;" d="M204.8,494.933c0,4.71-3.823,8.533-8.533,8.533s-8.533-3.823-8.533-8.533s3.823-8.533,8.533-8.533
			S204.8,490.223,204.8,494.933"/>
		<path style="fill:#F18D46;" d="M213.325,477.867c-1.28,0-2.586-0.29-3.806-0.896c-4.215-2.116-5.931-7.236-3.823-11.452
			l8.533-17.067c2.116-4.215,7.228-5.931,11.452-3.823c4.215,2.116,5.931,7.236,3.823,11.452l-8.533,17.067
			C219.469,476.143,216.457,477.867,213.325,477.867"/>
		<path style="fill:#F18D46;" d="M426.667,503.467c0,4.71-3.823,8.533-8.533,8.533s-8.533-3.823-8.533-8.533
			c0-4.71,3.823-8.533,8.533-8.533S426.667,498.756,426.667,503.467"/>
		<path style="fill:#F18D46;" d="M418.133,477.867c-4.71,0-8.533-3.823-8.533-8.533v-17.067c0-4.71,3.823-8.533,8.533-8.533
			s8.533,3.823,8.533,8.533v17.067C426.667,474.044,422.844,477.867,418.133,477.867"/>
		<path style="fill:#F18D46;" d="M469.333,494.933c0,4.71,3.823,8.533,8.533,8.533s8.533-3.823,8.533-8.533
			s-3.823-8.533-8.533-8.533S469.333,490.223,469.333,494.933"/>
		<path style="fill:#F18D46;" d="M460.809,477.867c-3.132,0-6.144-1.724-7.646-4.719l-8.533-17.067
			c-2.108-4.215-0.393-9.335,3.823-11.452c4.224-2.108,9.335-0.393,11.452,3.823l8.533,17.067c2.108,4.215,0.393,9.335-3.823,11.452
			C463.394,477.577,462.089,477.867,460.809,477.867"/>
		<path style="fill:#F18D46;" d="M366.933,494.933c0,4.71-3.823,8.533-8.533,8.533s-8.533-3.823-8.533-8.533
			s3.823-8.533,8.533-8.533S366.933,490.223,366.933,494.933"/>
		<path style="fill:#F18D46;" d="M375.458,477.867c-1.28,0-2.586-0.29-3.806-0.896c-4.216-2.116-5.931-7.236-3.823-11.452
			l8.533-17.067c2.108-4.215,7.228-5.931,11.452-3.823c4.215,2.116,5.931,7.236,3.823,11.452l-8.533,17.067
			C381.602,476.143,378.59,477.867,375.458,477.867"/>
		<path style="fill:#F18D46;" d="M102.4,503.467c0,4.71-3.823,8.533-8.533,8.533c-4.71,0-8.533-3.823-8.533-8.533
			c0-4.71,3.823-8.533,8.533-8.533C98.577,494.933,102.4,498.756,102.4,503.467"/>
		<path style="fill:#F18D46;" d="M93.867,477.867c-4.71,0-8.533-3.823-8.533-8.533v-17.067c0-4.71,3.823-8.533,8.533-8.533
			c4.71,0,8.533,3.823,8.533,8.533v17.067C102.4,474.044,98.577,477.867,93.867,477.867"/>
		<path style="fill:#F18D46;" d="M145.067,494.933c0,4.71,3.823,8.533,8.533,8.533s8.533-3.823,8.533-8.533
			s-3.823-8.533-8.533-8.533S145.067,490.223,145.067,494.933"/>
		<path style="fill:#F18D46;" d="M136.542,477.867c-3.132,0-6.144-1.724-7.646-4.719l-8.533-17.067
			c-2.108-4.215-0.393-9.335,3.823-11.452c4.224-2.108,9.344-0.393,11.452,3.823l8.533,17.067c2.108,4.215,0.393,9.335-3.823,11.452
			C139.127,477.577,137.822,477.867,136.542,477.867"/>
		<path style="fill:#F18D46;" d="M42.667,494.933c0,4.71-3.823,8.533-8.533,8.533s-8.533-3.823-8.533-8.533s3.823-8.533,8.533-8.533
			S42.667,490.223,42.667,494.933"/>
		<path style="fill:#F18D46;" d="M51.191,477.867c-1.28,0-2.586-0.29-3.806-0.896c-4.215-2.116-5.931-7.236-3.823-11.452
			l8.533-17.067c2.116-4.215,7.228-5.931,11.452-3.823c4.215,2.116,5.931,7.236,3.823,11.452l-8.533,17.067
			C57.335,476.143,54.323,477.867,51.191,477.867"/>
	</g>
	<path style="fill:#B0B6BB;" d="M324.267,238.933c0,37.7-30.566,68.267-68.267,68.267s-68.267-30.566-68.267-68.267
		S218.3,170.667,256,170.667S324.267,201.233,324.267,238.933"/>
	<g>
		<path style="fill:#E8EDEE;" d="M213.333,85.333c-4.71,0-8.533-3.823-8.533-8.533c0-23.526,19.14-42.667,42.667-42.667
			c4.71,0,8.533,3.823,8.533,8.533s-3.823,8.533-8.533,8.533c-14.114,0-25.6,11.486-25.6,25.6
			C221.867,81.51,218.044,85.333,213.333,85.333"/>
		<path style="fill:#E8EDEE;" d="M290.133,238.933c0,18.85-15.283,34.133-34.133,34.133c-18.85,0-34.133-15.283-34.133-34.133
			S237.15,204.8,256,204.8C274.85,204.8,290.133,220.083,290.133,238.933"/>
		<path style="fill:#E8EDEE;" d="M409.6,392.533c-4.71,0-8.533,3.823-8.533,8.533v17.067h17.067v-17.067
			C418.133,396.356,414.31,392.533,409.6,392.533"/>
		<path style="fill:#E8EDEE;" d="M375.467,392.533c-4.71,0-8.533,3.823-8.533,8.533v17.067H384v-17.067
			C384,396.356,380.177,392.533,375.467,392.533"/>
		<path style="fill:#E8EDEE;" d="M341.333,392.533c-4.71,0-8.533,3.823-8.533,8.533v17.067h17.067v-17.067
			C349.867,396.356,346.044,392.533,341.333,392.533"/>
		<path style="fill:#E8EDEE;" d="M307.2,392.533c-4.71,0-8.533,3.823-8.533,8.533v17.067h17.067v-17.067
			C315.733,396.356,311.91,392.533,307.2,392.533"/>
		<path style="fill:#E8EDEE;" d="M273.067,392.533c-4.71,0-8.533,3.823-8.533,8.533v17.067H281.6v-17.067
			C281.6,396.356,277.777,392.533,273.067,392.533"/>
		<path style="fill:#E8EDEE;" d="M238.933,392.533c-4.71,0-8.533,3.823-8.533,8.533v17.067h17.067v-17.067
			C247.467,396.356,243.644,392.533,238.933,392.533"/>
		<path style="fill:#E8EDEE;" d="M204.8,392.533c-4.71,0-8.533,3.823-8.533,8.533v17.067h17.067v-17.067
			C213.333,396.356,209.51,392.533,204.8,392.533"/>
		<path style="fill:#E8EDEE;" d="M170.667,392.533c-4.71,0-8.533,3.823-8.533,8.533v17.067H179.2v-17.067
			C179.2,396.356,175.377,392.533,170.667,392.533"/>
		<path style="fill:#E8EDEE;" d="M136.533,392.533c-4.71,0-8.533,3.823-8.533,8.533v17.067h17.067v-17.067
			C145.067,396.356,141.244,392.533,136.533,392.533"/>
		<path style="fill:#E8EDEE;" d="M102.4,392.533c-4.71,0-8.533,3.823-8.533,8.533v17.067h17.067v-17.067
			C110.933,396.356,107.11,392.533,102.4,392.533"/>
	</g>
	<g>
		<path style="fill:#B0B6BB;" d="M341.333,187.733h39.253l-6.827-17.067h-32.427c-4.71,0-8.533,3.823-8.533,8.533
			S336.623,187.733,341.333,187.733"/>
		<path style="fill:#B0B6BB;" d="M366.933,247.467h37.547l-6.827-17.067h-30.72c-4.71,0-8.533,3.823-8.533,8.533
			S362.223,247.467,366.933,247.467"/>
		<path style="fill:#B0B6BB;" d="M421.547,290.133h-71.68c-4.71,0-8.533,3.823-8.533,8.533s3.823,8.533,8.533,8.533h78.507
			L421.547,290.133z"/>
		<path style="fill:#B0B6BB;" d="M131.413,187.733h39.253c4.71,0,8.533-3.823,8.533-8.533s-3.823-8.533-8.533-8.533H138.24
			L131.413,187.733z"/>
		<path style="fill:#B0B6BB;" d="M145.067,247.467c4.71,0,8.533-3.823,8.533-8.533s-3.823-8.533-8.533-8.533h-30.72l-6.827,17.067
			H145.067z"/>
		<path style="fill:#B0B6BB;" d="M162.133,307.2c4.71,0,8.533-3.823,8.533-8.533s-3.823-8.533-8.533-8.533h-71.68L83.627,307.2
			H162.133z"/>
	</g>
</g>
</svg>