<?xml version="1.0" encoding="iso-8859-1"?>
<!-- Uploaded to: SVG Repo, www.svgrepo.com, Generator: SVG Repo Mixer Tools -->
<svg height="800px" width="800px" version="1.1" id="Layer_1" xmlns="http://www.w3.org/2000/svg" xmlns:xlink="http://www.w3.org/1999/xlink" 
	 viewBox="0 0 512 512" xml:space="preserve">
<g>
	<polygon style="fill:#B0B6BB;" points="167.724,512 344.276,512 344.276,476.69 167.724,476.69 	"/>
	<polygon style="fill:#E8EDEE;" points="344.276,476.69 167.724,476.69 97.103,423.724 414.897,423.724 	"/>
	<polygon style="fill:#B0B6BB;" points="97.103,423.724 414.897,423.724 414.897,370.759 97.103,370.759 	"/>
	<polygon style="fill:#E8EDEE;" points="97.103,370.759 414.897,370.759 414.897,141.241 97.103,141.241 	"/>
	<polygon style="fill:#B0B6BB;" points="167.724,35.31 344.276,35.31 344.276,0 167.724,0 	"/>
	<polygon style="fill:#E8EDEE;" points="167.724,35.31 344.276,35.31 414.897,88.276 97.103,88.276 	"/>
	<polygon style="fill:#B0B6BB;" points="97.103,141.241 414.897,141.241 414.897,88.276 97.103,88.276 	"/>
	<path style="fill:#F3D55B;" d="M308.966,256c0,29.255-23.711,52.966-52.966,52.966S203.034,285.255,203.034,256
		s23.711-52.966,52.966-52.966S308.966,226.745,308.966,256"/>
	<g>
		<path style="fill:#B0B6BB;" d="M414.897,176.552h-70.621c-4.882,0-8.828,3.955-8.828,8.828c0,4.873,3.946,8.828,8.828,8.828
			h70.621V176.552z"/>
		<path style="fill:#B0B6BB;" d="M414.897,247.172h-35.31c-4.882,0-8.828,3.955-8.828,8.828s3.946,8.828,8.828,8.828h35.31V247.172z
			"/>
		<path style="fill:#B0B6BB;" d="M414.897,317.793h-70.621c-4.882,0-8.828,3.955-8.828,8.828c0,4.873,3.946,8.828,8.828,8.828
			h70.621V317.793z"/>
		<path style="fill:#B0B6BB;" d="M167.724,176.552H97.103v17.655h70.621c4.882,0,8.828-3.955,8.828-8.828
			C176.552,180.506,172.606,176.552,167.724,176.552"/>
		<path style="fill:#B0B6BB;" d="M132.414,247.172h-35.31v17.655h35.31c4.882,0,8.828-3.955,8.828-8.828
			S137.295,247.172,132.414,247.172"/>
		<path style="fill:#B0B6BB;" d="M167.724,317.793H97.103v17.655h70.621c4.882,0,8.828-3.955,8.828-8.828
			C176.552,321.748,172.606,317.793,167.724,317.793"/>
	</g>
	<g>
		<path style="fill:#CBB292;" d="M308.966,256c0-3.01-0.309-5.95-0.794-8.828h-25.688c-4.882,0-8.828,3.955-8.828,8.828
			s3.946,8.828,8.828,8.828h25.688C308.657,261.95,308.966,259.01,308.966,256"/>
		<path style="fill:#CBB292;" d="M256,203.034c-3.019,0-5.95,0.309-8.828,0.794v25.688c0,4.873,3.946,8.828,8.828,8.828
			s8.828-3.955,8.828-8.828v-25.688C261.95,203.343,259.019,203.034,256,203.034"/>
		<path style="fill:#CBB292;" d="M256,273.655c-4.882,0-8.828,3.955-8.828,8.828v25.688c2.878,0.486,5.809,0.794,8.828,0.794
			c3.019,0,5.95-0.309,8.828-0.794v-25.688C264.828,277.61,260.882,273.655,256,273.655"/>
		<path style="fill:#CBB292;" d="M229.517,247.172h-25.688c-0.486,2.878-0.794,5.817-0.794,8.828c0,3.01,0.309,5.95,0.794,8.828
			h25.688c4.882,0,8.828-3.955,8.828-8.828S234.399,247.172,229.517,247.172"/>
	</g>
</g>
</svg>